<svg xmlns="http://www.w3.org/2000/svg" width="28.989" height="29.112" viewBox="0 0 28.989 29.112">
  <path id="entypo_search" data-name="entypo search" d="M28.376,30.794q1.1,1.25.221,2.279l-1.691,1.691a1.621,1.621,0,0,1-2.5,0L17.423,27.78a11.445,11.445,0,0,1-5.734,1.544,11.221,11.221,0,0,1-8.2-3.492A11.221,11.221,0,0,1,0,17.635a11.035,11.035,0,0,1,3.308-8.05A10.853,10.853,0,0,1,11.321,6.24a11.342,11.342,0,0,1,8.234,3.492,11.3,11.3,0,0,1,1.838,14.151l6.984,6.91ZM3.455,17.635a7.887,7.887,0,0,0,2.5,5.734,7.887,7.887,0,0,0,5.734,2.5,7.571,7.571,0,0,0,5.55-2.316,7.657,7.657,0,0,0,2.316-5.624,7.767,7.767,0,0,0-2.5-5.7,7.943,7.943,0,0,0-5.734-2.463,7.571,7.571,0,0,0-5.55,2.316,7.571,7.571,0,0,0-2.316,5.55h0Z" transform="translate(0 -6.24)" fill="#ced3de"/>
</svg>
